<svg width="800" height="800" viewBox="0 0 24 24" fill="none" xmlns="http://www.w3.org/2000/svg">
  <path fill-rule="evenodd" clip-rule="evenodd" d="M5 4C5 2.89543 5.89543 2 7 2C8.10457 2 9 2.89543 9 4C9 4.25652 8.94755 4.50147 8.85333 4.72468L14.618 8.10407C15.377 7.4184 16.3879 7 17.5 7C19.9853 7 22 9.01472 22 11.5C22 13.9853 19.9853 16 17.5 16C16.3879 16 15.377 15.5816 14.618 14.8959L8.85333 18.2753C8.94755 18.4985 9 18.7435 9 19C9 20.1046 8.10457 21 7 21C5.89543 21 5 20.1046 5 19C5 18.4829 5.214 18.0122 5.55896 17.6692L3.70711 15.8173C3.31658 15.4268 3.31658 14.7936 3.70711 14.4031C4.09763 14.0126 4.7308 14.0126 5.12132 14.4031L6.97318 16.255L12.3131 13.1967C12.1086 12.6707 12 12.0968 12 11.5C12 10.9032 12.1086 10.3293 12.3131 9.80326L6.97318 6.74497L5.12132 8.59683C4.7308 8.98736 4.09763 8.98736 3.70711 8.59683C3.31658 8.20631 3.31658 7.57314 3.70711 7.18262L5.55896 5.33076C5.214 4.98778 5 4.5171 5 4ZM7 4.75C6.86193 4.75 6.75 4.86193 6.75 5C6.75 5.13807 6.86193 5.25 7 5.25C7.13807 5.25 7.25 5.13807 7.25 5C7.25 4.86193 7.13807 4.75 7 4.75ZM17.5 14.75C18.7426 14.75 19.75 13.7426 19.75 12.5C19.75 11.2574 18.7426 10.25 17.5 10.25C16.2574 10.25 15.25 11.2574 15.25 12.5C15.25 13.7426 16.2574 14.75 17.5 14.75ZM7 18.75C6.86193 18.75 6.75 18.8619 6.75 19C6.75 19.1381 6.86193 19.25 7 19.25C7.13807 19.25 7.25 19.1381 7.25 19C7.25 18.8619 7.13807 18.75 7 18.75Z" fill="#000000"/>
</svg>
